<svg height="512pt" viewBox="-59 0 512 512" width="512pt" xmlns="http://www.w3.org/2000/svg"><path d="m155.351562 448.984375 221.300782-221.296875c14.460937-14.464844 14.460937-37.914062 0-52.378906-1.160156-1.15625-3.035156-1.15625-4.191406 0l-245.390626 245.390625zm0 0" fill="#9ad5ed"/><path d="m292.5 182.179688c0 52.46875-42.535156 95-95 95-52.46875 0-95-42.53125-95-95 0-52.464844 42.53125-95 95-95 52.464844 0 95 42.535156 95 95zm0 0" fill="#ffd659"/><path d="m197.5 87.179688c-5.105469 0-10.113281.410156-15 1.183593 45.339844 7.191407 80 46.453125 80 93.816407 0 47.363281-34.660156 86.625-80 93.816406 4.886719.777344 9.894531 1.183594 15 1.183594 52.464844 0 95-42.53125 95-95 0-52.464844-42.535156-95-95-95zm0 0" fill="#ffbd54"/><g fill="#ffd659"><path d="m132.5 73.5c0 16.570312-13.433594 30-30 30-16.570312 0-30-13.429688-30-30s13.429688-30 30-30c16.566406 0 30 13.429688 30 30zm0 0"/><path d="m322.5 73.5c0 16.570312-13.433594 30-30 30-16.570312 0-30-13.429688-30-30s13.429688-30 30-30c16.566406 0 30 13.429688 30 30zm0 0"/><path d="m227.5 37.5c0 16.570312-13.433594 30-30 30-16.570312 0-30-13.429688-30-30s13.429688-30 30-30c16.566406 0 30 13.429688 30 30zm0 0"/></g><path d="m102.5 43.5c-5.46875 0-10.585938 1.46875-15 4.023438 8.964844 5.1875 15 14.875 15 25.976562s-6.035156 20.789062-15 25.976562c4.414062 2.554688 9.53125 4.023438 15 4.023438 16.566406 0 30-13.429688 30-30s-13.433594-30-30-30zm0 0" fill="#ffbd54"/><path d="m292.5 43.5c-5.46875 0-10.585938 1.46875-15 4.023438 8.964844 5.1875 15 14.875 15 25.976562s-6.035156 20.789062-15 25.976562c4.414062 2.554688 9.53125 4.023438 15 4.023438 16.566406 0 30-13.429688 30-30s-13.433594-30-30-30zm0 0" fill="#ffbd54"/><path d="m197.5 7.5c-5.46875 0-10.585938 1.46875-15 4.023438 8.964844 5.1875 15 14.875 15 25.976562s-6.035156 20.789062-15 25.976562c4.414062 2.554688 9.53125 4.023438 15 4.023438 16.566406 0 30-13.429688 30-30s-13.433594-30-30-30zm0 0" fill="#ffbd54"/><path d="m247.5 181.5c0 4.140625-1.679688 7.890625-4.402344 10.601562-2.707031 2.71875-6.457031 4.398438-10.597656 4.398438h-20v20c0 8.28125-6.722656 15-15 15-8.28125 0-15-6.71875-15-15v-20h-20c-8.28125 0-15-6.71875-15-15s6.71875-15 15-15h20v-20c0-8.28125 6.71875-15 15-15 4.140625 0 7.890625 1.679688 10.597656 4.398438 2.722656 2.710937 4.402344 6.460937 4.402344 10.601562v20h20c8.277344 0 15 6.71875 15 15zm0 0" fill="#89ceea"/><path d="m155.339844 406.539062-11.300782-11.289062c-32.019531-32.03125-83.941406-32.03125-115.96875 0-12.492187 12.488281-18.742187 28.871094-18.742187 45.25 0 12.179688 3.460937 24.359375 10.371094 34.941406.238281.367188.488281.738282.738281 1.109375.371094.539063.742188 1.070313 1.121094 1.589844.320312.4375.652344.890625.992187 1.320313 1.679688 2.1875 3.519531 4.289062 5.519531 6.289062 12.5 12.5 28.878907 18.75 45.257813 18.75 16.382813 0 32.75-6.25 45.25-18.75l57.992187-57.980469zm-57.972656 58c-.359376.359376-.726563.722657-1.109376 1.0625-.089843.078126-.1875.167969-.277343.25-.011719.007813-.019531.019532-.03125.027344-6.429688 5.75-14.53125 8.621094-22.621094 8.621094-8.699219 0-17.398437-3.320312-24.039063-9.960938-6.640624-6.640624-9.960937-15.339843-9.960937-24.039062s3.320313-17.398438 9.960937-24.039062c20.308594-20.3125 53.230469-20.3125 73.539063 0l11.289063 11.289062.023437.019531zm0 0" fill="#e8e1d5"/><path d="m176.570312 427.769531-57.992187 57.980469c-12.5 12.5-28.867187 18.75-45.25 18.75-16.378906 0-32.757813-6.25-45.257813-18.75-2-2-3.839843-4.101562-5.519531-6.289062-.339843-.429688-.671875-.882813-.992187-1.320313-.378906-.519531-.75-1.050781-1.121094-1.589844-.25-.371093-.5-.742187-.738281-1.109375 9.820312 5.617188 20.800781 8.449219 31.78125 8.449219 16.046875 0 32.070312-6.019531 44.46875-18.011719.011719-.007812.019531-.019531.03125-.027344.089843-.082031.1875-.171874.277343-.25.382813-.339843.75-.703124 1.109376-1.0625l36.773437-36.769531-.023437-.019531 21.222656-21.210938zm0 0" fill="#d6cfc4"/><path d="m239.644531 448.984375-221.296875-221.296875c-14.464844-14.464844-14.464844-37.914062 0-52.378906 1.15625-1.15625 3.03125-1.15625 4.1875 0l245.394532 245.390625zm0 0" fill="#cee8f2"/><path d="m366.929688 395.25c-32.03125-32.03125-83.949219-32.03125-115.96875 0l-32.53125 32.519531 57.988281 57.980469c12.5 12.5 28.871093 18.75 45.25 18.75 16.382812 0 32.761719-6.25 45.261719-18.75 12.488281-12.488281 18.738281-28.871094 18.738281-45.25s-6.25-32.761719-18.738281-45.25zm-21.21875 69.289062c-6.640626 6.640626-15.34375 9.960938-24.042969 9.960938s-17.398438-3.320312-24.039063-9.960938l-36.769531-36.769531 11.308594-11.308593c20.3125-20.3125 53.230469-20.3125 73.542969 0 6.636718 6.640624 9.957031 15.339843 9.957031 24.039062s-3.320313 17.398438-9.957031 24.039062zm0 0" fill="#d6cfc4"/><path d="m366.929688 395.25c-19.847657-19.847656-47.332032-27.382812-72.988282-22.632812 15.746094 2.914062 30.804688 10.449218 42.988282 22.632812 12.074218 12.074219 18.300781 27.785156 18.699218 43.617188.027344.542968.039063 1.089843.039063 1.632812s-.011719 1.089844-.039063 1.632812c-.398437 15.832032-6.625 31.542969-18.699218 43.617188-8.65625 8.65625-19.171876 14.308594-30.257813 16.972656 4.921875 1.179688 9.957031 1.777344 14.996094 1.777344 16.382812 0 32.761719-6.25 45.261719-18.75 12.488281-12.488281 18.738281-28.871094 18.738281-45.25s-6.25-32.761719-18.738281-45.25zm0 0" fill="#c4beb4"/><path d="m136.59375 255.476562c-2.390625 3.378907-1.585938 8.0625 1.796875 10.453126 17.347656 12.265624 37.789063 18.75 59.105469 18.75 56.519531 0 102.5-45.980469 102.5-102.5 0-56.519532-45.976563-102.5-102.496094-102.5s-102.5 45.980468-102.5 102.5c0 21.496093 6.582031 42.074218 19.035156 59.507812 2.40625 3.371094 7.089844 4.152344 10.460938 1.746094s4.152344-7.089844 1.746094-10.460938c-10.625-14.878906-16.242188-32.445312-16.242188-50.792968 0-48.25 39.25-87.5 87.5-87.5 48.246094 0 87.496094 39.25 87.496094 87.5 0 48.246093-39.25 87.5-87.496094 87.5-18.199219 0-35.648438-5.535157-50.449219-16-3.382812-2.390626-8.0625-1.585938-10.457031 1.796874zm0 0"/><path d="m102.5 111c20.675781 0 37.5-16.820312 37.5-37.5s-16.820312-37.5-37.5-37.5-37.5 16.820312-37.5 37.5 16.824219 37.5 37.5 37.5zm0-60c12.40625 0 22.5 10.09375 22.5 22.5s-10.09375 22.5-22.5 22.5-22.5-10.09375-22.5-22.5 10.09375-22.5 22.5-22.5zm0 0"/><path d="m292.496094 111c20.679687 0 37.5-16.820312 37.5-37.5s-16.820313-37.5-37.5-37.5c-20.675782 0-37.5 16.820312-37.5 37.5s16.824218 37.5 37.5 37.5zm0-60c12.40625 0 22.5 10.09375 22.5 22.5s-10.09375 22.5-22.5 22.5c-12.402344 0-22.5-10.09375-22.5-22.5s10.097656-22.5 22.5-22.5zm0 0"/><path d="m197.5 75c20.675781 0 37.5-16.820312 37.5-37.5s-16.824219-37.5-37.5-37.5c-20.679688 0-37.5 16.820312-37.5 37.5s16.820312 37.5 37.5 37.5zm0-60c12.40625 0 22.5 10.09375 22.5 22.5s-10.09375 22.5-22.5 22.5-22.5-10.09375-22.5-22.5 10.09375-22.5 22.5-22.5zm0 0"/><path d="m213.410156 130.605469c-4.242187-4.257813-9.894531-6.605469-15.910156-6.605469-12.40625 0-22.5 10.09375-22.5 22.5v12.5h-12.5c-12.40625 0-22.5 10.09375-22.5 22.5s10.09375 22.5 22.5 22.5h12.5v12.5c0 12.40625 10.09375 22.5 22.5 22.5s22.5-10.09375 22.5-22.5v-12.5h12.5c6.015625 0 11.667969-2.347656 15.894531-6.585938 4.257813-4.246093 6.601563-9.898437 6.601563-15.914062 0-12.40625-10.089844-22.5-22.496094-22.5h-12.5v-12.5c0-6.019531-2.347656-11.671875-6.589844-15.894531zm19.089844 43.394531c4.132812 0 7.496094 3.363281 7.496094 7.5 0 2-.777344 3.878906-2.210938 5.304688-1.410156 1.417968-3.285156 2.195312-5.285156 2.195312h-20c-4.144531 0-7.5 3.359375-7.5 7.5v20c0 4.136719-3.363281 7.5-7.5 7.5s-7.5-3.363281-7.5-7.5v-20c0-4.140625-3.359375-7.5-7.5-7.5h-20c-4.136719 0-7.5-3.363281-7.5-7.5s3.363281-7.5 7.5-7.5h20c4.140625 0 7.5-3.359375 7.5-7.5v-20c0-4.136719 3.363281-7.5 7.5-7.5 2 0 3.875.777344 5.304688 2.214844 1.414062 1.40625 2.195312 3.285156 2.195312 5.285156v20c0 4.140625 3.355469 7.5 7.5 7.5zm0 0"/><path d="m128.128906 411.15625c-11.027344-11.027344-25.6875-17.214844-41.277344-17.421875-.035156 0-.070312 0-.105468 0-4.09375 0-7.441406 3.289063-7.496094 7.398437-.054688 4.140626 3.257812 7.542969 7.398438 7.597657 11.664062.15625 22.625 4.785156 30.875 13.03125l6.007812 6.011719-31.464844 31.464843c-5.003906 5.003907-11.660156 7.761719-18.738281 7.761719s-13.730469-2.757812-18.738281-7.761719c-5.003906-5.003906-7.761719-11.660156-7.761719-18.738281s2.757813-13.730469 7.761719-18.738281c1.875-1.871094 3.914062-3.582031 6.0625-5.078125 3.398437-2.371094 4.234375-7.042969 1.863281-10.441406-2.367187-3.398438-7.042969-4.234376-10.441406-1.863282-2.871094 2-5.59375 4.28125-8.089844 6.777344-16.179687 16.179688-16.179687 42.507812 0 58.691406 7.839844 7.835938 18.261719 12.152344 29.34375 12.152344 11.085937 0 21.507813-4.316406 29.347656-12.152344l36.765625-36.773437c2.929688-2.925781 2.929688-7.675781 0-10.605469zm0 0"/><path d="m308.9375 363.726562c-23.402344 0-45.417969 8.945313-62.195312 25.179688l-10.359376-10.355469 145.566407-145.558593c8.414062-8.414063 13.046875-19.601563 13.046875-31.496094 0-11.898438-4.632813-23.082032-13.046875-31.488282-1.980469-1.980468-4.605469-3.070312-7.394531-3.070312-2.796876 0-5.425782 1.089844-7.402344 3.070312l-19.332032 19.332032c-2.929687 2.929687-2.929687 7.675781 0 10.605468 2.929688 2.929688 7.675782 2.929688 10.605469 0l15.882813-15.882812c3.695312 5.027344 5.6875 11.078125 5.6875 17.433594 0 7.890625-3.074219 15.308594-8.652344 20.890625l-145.566406 145.554687-17.671875-17.671875 127.703125-127.703125c2.929687-2.929687 2.929687-7.679687 0-10.605468-2.929688-2.929688-7.675782-2.929688-10.605469 0l-127.703125 127.703124-169.65625-169.65625c-1.976562-1.980468-4.605469-3.066406-7.402344-3.066406-2.792968 0-5.417968 1.089844-7.390625 3.0625-8.417969 8.410156-13.050781 19.59375-13.050781 31.492188 0 11.894531 4.632812 23.082031 13.050781 31.496094l145.5625 145.558593-10.355469 10.355469c-16.777343-16.234375-38.796874-25.179688-62.199218-25.179688-23.90625 0-46.382813 9.3125-63.285156 26.214844-27.878907 27.878906-27.878907 73.238282 0 101.117188 13.503906 13.503906 31.457031 20.941406 50.554687 20.941406 19.101563 0 37.054687-7.4375 50.558594-20.941406l73.613281-73.621094 73.609375 73.621094c13.503906 13.503906 31.460937 20.941406 50.558594 20.941406 19.097656 0 37.054687-7.4375 50.558593-20.941406 27.875-27.878906 27.875-73.238282 0-101.117188-16.90625-16.902344-39.378906-26.214844-63.289062-26.214844zm-293.9375-162.230468c0-6.355469 1.992188-12.402344 5.6875-17.433594l215.421875 215.425781-17.671875 17.671875-194.78125-194.773437c-5.582031-5.582031-8.65625-13-8.65625-20.890625zm98.28125 278.957031c-10.671875 10.667969-24.859375 16.546875-39.953125 16.546875-15.089844 0-29.277344-5.878906-39.949219-16.546875-22.027344-22.03125-22.027344-57.875 0-79.902344 14.070313-14.074219 32.777344-21.820312 52.679688-21.820312 19.898437 0 38.605468 7.746093 52.679687 21.820312l4.1875 4.1875c.019531.019531.035157.039063.050781.054688.019532.019531.039063.03125.054688.050781l22.925781 22.925781-15.910156 15.90625c-.03125.03125-.054687.066407-.085937.097657zm63.285156-63.289063-17.679687-17.675781 10.332031-10.332031 17.675781 17.675781zm185.050782 63.289063c-10.671876 10.667969-24.859376 16.546875-39.949219 16.546875-15.089844 0-29.277344-5.878906-39.949219-16.546875l-52.675781-52.683594 27.21875-27.21875c14.070312-14.074219 32.777343-21.820312 52.679687-21.820312 19.898438 0 38.605469 7.746093 52.675782 21.820312 22.03125 22.027344 22.03125 57.871094 0 79.902344zm0 0"/><path d="m308.9375 393.726562c-15.890625 0-30.832031 6.191407-42.070312 17.429688l-11.3125 11.3125c-2.929688 2.929688-2.929688 7.675781 0 10.605469l36.769531 36.769531c7.835937 7.839844 18.261719 12.15625 29.34375 12.15625 11.085937 0 21.507812-4.316406 29.347656-12.15625 16.179687-16.179688 16.179687-42.507812 0-58.691406-11.242187-11.234375-26.183594-17.425782-42.078125-17.425782zm31.46875 65.511719c-5.007812 5.003907-11.660156 7.761719-18.738281 7.761719s-13.734375-2.757812-18.738281-7.761719l-31.464844-31.46875 6.011718-6.007812c8.402344-8.40625 19.578126-13.035157 31.464844-13.035157 11.886719 0 23.0625 4.628907 31.464844 13.035157 10.332031 10.332031 10.332031 27.144531 0 37.476562zm0 0"/><path d="m205 378c0 4.140625-3.359375 7.5-7.5 7.5-4.144531 0-7.5-3.359375-7.5-7.5s3.355469-7.5 7.5-7.5c4.140625 0 7.5 3.359375 7.5 7.5zm0 0"/></svg>